<?xml version="1.0" encoding="UTF-8" standalone="no"?>
<svg
   xmlns:dc="http://purl.org/dc/elements/1.1/"
   xmlns:cc="http://creativecommons.org/ns#"
   xmlns:rdf="http://www.w3.org/1999/02/22-rdf-syntax-ns#"
   xmlns:svg="http://www.w3.org/2000/svg"
   xmlns="http://www.w3.org/2000/svg"
   xmlns:sodipodi="http://sodipodi.sourceforge.net/DTD/sodipodi-0.dtd"
   xmlns:inkscape="http://www.inkscape.org/namespaces/inkscape"
   width="512"
   height="512"
   viewBox="0 0 135.46666 135.46666"
   version="1.1"
   id="svg8"
   inkscape:version="1.0 (4035a4fb49, 2020-05-01)"
   sodipodi:docname="hcc_logo.svg">
  <defs
     id="defs2">
    <marker
       inkscape:stockid="Arrow1Mend"
       orient="auto"
       refY="0"
       refX="0"
       id="Arrow1Mend"
       style="overflow:visible"
       inkscape:isstock="true">
      <path
         id="path892"
         d="M 0,0 5,-5 -12.5,0 5,5 Z"
         style="fill:#000000;fill-opacity:1;fill-rule:evenodd;stroke:#000000;stroke-width:1pt;stroke-opacity:1"
         transform="matrix(-0.4,0,0,-0.4,-4,0)" />
    </marker>
    <marker
       inkscape:stockid="Arrow1Lend"
       orient="auto"
       refY="0"
       refX="0"
       id="Arrow1Lend"
       style="overflow:visible"
       inkscape:isstock="true">
      <path
         id="path886"
         d="M 0,0 5,-5 -12.5,0 5,5 Z"
         style="fill:#000000;fill-opacity:1;fill-rule:evenodd;stroke:#000000;stroke-width:1pt;stroke-opacity:1"
         transform="matrix(-0.8,0,0,-0.8,-10,0)" />
    </marker>
  </defs>
  <sodipodi:namedview
     id="base"
     pagecolor="#ffffff"
     bordercolor="#666666"
     borderopacity="1.0"
     inkscape:pageopacity="0.0"
     inkscape:pageshadow="2"
     inkscape:zoom="1.4"
     inkscape:cx="309.83969"
     inkscape:cy="267.49779"
     inkscape:document-units="px"
     inkscape:current-layer="layer1"
     inkscape:document-rotation="0"
     showgrid="false"
     inkscape:snap-object-midpoints="false"
     units="px"
     inkscape:window-width="1920"
     inkscape:window-height="991"
     inkscape:window-x="-9"
     inkscape:window-y="-9"
     inkscape:window-maximized="1" />
  <metadata
     id="metadata5">
    <rdf:RDF>
      <cc:Work
         rdf:about="">
        <dc:format>image/svg+xml</dc:format>
        <dc:type
           rdf:resource="http://purl.org/dc/dcmitype/StillImage" />
        <dc:title></dc:title>
      </cc:Work>
    </rdf:RDF>
  </metadata>
  <g
     inkscape:label="Слой 1"
     inkscape:groupmode="layer"
     id="layer1">
    <g
       style="font-style:normal;font-weight:normal;font-size:10.5833px;line-height:1.25;font-family:sans-serif;fill:#000000;fill-opacity:1;stroke:none;stroke-width:0.264583"
       id="text923"
       transform="rotate(57.498873,5.3988803,-0.45211792)"
       aria-label="01010110111101">
      <path
         id="path957"
         style="stroke-width:0.264583"
         d="m 26.010379,4.2858818 q -0.80615,0 -1.214393,0.7958145 -0.403075,0.7906469 -0.403075,2.382276 0,1.5864614 0.403075,2.3822759 0.408243,0.7906468 1.214393,0.7906468 0.811317,0 1.214392,-0.7906468 0.408242,-0.7958145 0.408242,-2.3822759 0,-1.5916291 -0.408242,-2.382276 -0.403075,-0.7958145 -1.214392,-0.7958145 z m 0,-0.8268203 q 1.297074,0 1.979201,1.0283577 0.687294,1.0231901 0.687294,2.9765531 0,1.9481953 -0.687294,2.9765527 -0.682127,1.02319 -1.979201,1.02319 -1.297075,0 -1.984369,-1.02319 -0.682127,-1.0283574 -0.682127,-2.9765527 0,-1.953363 0.682127,-2.9765531 0.687294,-1.0283577 1.984369,-1.0283577 z" />
      <path
         id="path959"
         style="stroke-width:0.264583"
         d="m 30.697416,10.435358 h 1.705317 V 4.5494308 L 30.547555,4.9214999 V 3.9706566 l 1.844843,-0.3720692 h 1.04386 v 6.8367706 h 1.705317 v 0.878496 h -4.444159 z" />
      <path
         id="path961"
         style="stroke-width:0.264583"
         d="m 39.48755,4.2858818 q -0.80615,0 -1.214393,0.7958145 -0.403075,0.7906469 -0.403075,2.382276 0,1.5864614 0.403075,2.3822759 0.408243,0.7906468 1.214393,0.7906468 0.811317,0 1.214392,-0.7906468 0.408242,-0.7958145 0.408242,-2.3822759 0,-1.5916291 -0.408242,-2.382276 Q 40.298867,4.2858818 39.48755,4.2858818 Z m 0,-0.8268203 q 1.297074,0 1.979201,1.0283577 0.687294,1.0231901 0.687294,2.9765531 0,1.9481953 -0.687294,2.9765527 -0.682127,1.02319 -1.979201,1.02319 -1.297075,0 -1.984369,-1.02319 -0.682127,-1.0283574 -0.682127,-2.9765527 0,-1.953363 0.682127,-2.9765531 0.687294,-1.0283577 1.984369,-1.0283577 z" />
      <path
         id="path963"
         style="stroke-width:0.264583"
         d="m 44.174586,10.435358 h 1.705317 V 4.5494308 L 44.024725,4.9214999 V 3.9706566 l 1.844843,-0.3720692 h 1.04386 v 6.8367706 h 1.705317 v 0.878496 h -4.444159 z" />
      <path
         id="path965"
         style="stroke-width:0.264583"
         d="m 52.964721,4.2858818 q -0.80615,0 -1.214393,0.7958145 -0.403075,0.7906469 -0.403075,2.382276 0,1.5864614 0.403075,2.3822759 0.408243,0.7906468 1.214393,0.7906468 0.811317,0 1.214392,-0.7906468 0.408242,-0.7958145 0.408242,-2.3822759 0,-1.5916291 -0.408242,-2.382276 -0.403075,-0.7958145 -1.214392,-0.7958145 z m 0,-0.8268203 q 1.297074,0 1.979201,1.0283577 0.687294,1.0231901 0.687294,2.9765531 0,1.9481953 -0.687294,2.9765527 -0.682127,1.02319 -1.979201,1.02319 -1.297075,0 -1.984369,-1.02319 -0.682127,-1.0283574 -0.682127,-2.9765527 0,-1.953363 0.682127,-2.9765531 0.687294,-1.0283577 1.984369,-1.0283577 z" />
      <path
         id="path967"
         style="stroke-width:0.264583"
         d="m 57.651759,10.435358 h 1.705317 V 4.5494308 L 57.501898,4.9214999 V 3.9706566 l 1.844843,-0.3720692 h 1.04386 v 6.8367706 h 1.705317 v 0.878496 h -4.444159 z" />
      <path
         id="path969"
         style="stroke-width:0.264583"
         d="m 64.390342,10.435358 h 1.705317 V 4.5494308 L 64.240481,4.9214999 V 3.9706566 l 1.844842,-0.3720692 h 1.043861 v 6.8367706 h 1.705317 v 0.878496 h -4.444159 z" />
      <path
         id="path971"
         style="stroke-width:0.264583"
         d="m 73.180476,4.2858818 q -0.80615,0 -1.214392,0.7958145 -0.403075,0.7906469 -0.403075,2.382276 0,1.5864614 0.403075,2.3822759 0.408242,0.7906468 1.214392,0.7906468 0.811317,0 1.214392,-0.7906468 0.408243,-0.7958145 0.408243,-2.3822759 0,-1.5916291 -0.408243,-2.382276 -0.403075,-0.7958145 -1.214392,-0.7958145 z m 0,-0.8268203 q 1.297074,0 1.979201,1.0283577 0.687294,1.0231901 0.687294,2.9765531 0,1.9481953 -0.687294,2.9765527 -0.682127,1.02319 -1.979201,1.02319 -1.297074,0 -1.984369,-1.02319 -0.682126,-1.0283574 -0.682126,-2.9765527 0,-1.953363 0.682126,-2.9765531 0.687295,-1.0283577 1.984369,-1.0283577 z" />
      <path
         id="path973"
         style="stroke-width:0.264583"
         d="m 77.867515,10.435358 h 1.705316 V 4.5494308 L 77.717653,4.9214999 V 3.9706566 l 1.844843,-0.3720692 h 1.043861 v 6.8367706 h 1.705317 v 0.878496 h -4.444159 z" />
      <path
         id="path975"
         style="stroke-width:0.264583"
         d="m 84.606101,10.435358 h 1.705317 V 4.5494308 L 84.45624,4.9214999 V 3.9706566 l 1.844843,-0.3720692 h 1.04386 v 6.8367706 h 1.705317 v 0.878496 h -4.444159 z" />
      <path
         id="path977"
         style="stroke-width:0.264583"
         d="m 91.344687,10.435358 h 1.705317 V 4.5494308 L 91.194826,4.9214999 V 3.9706566 l 1.844843,-0.3720692 h 1.043861 v 6.8367706 h 1.705316 v 0.878496 h -4.444159 z" />
      <path
         id="path979"
         style="stroke-width:0.264583"
         d="m 98.083274,10.435358 h 1.705317 V 4.5494308 L 97.933413,4.9214999 V 3.9706566 l 1.844842,-0.3720692 h 1.043865 v 6.8367706 h 1.70531 v 0.878496 h -4.444156 z" />
      <path
         id="path981"
         style="stroke-width:0.264583"
         d="m 106.8734,4.2858818 q -0.80615,0 -1.21439,0.7958145 -0.40308,0.7906469 -0.40308,2.382276 0,1.5864614 0.40308,2.3822759 0.40824,0.7906468 1.21439,0.7906468 0.81132,0 1.21439,-0.7906468 0.40825,-0.7958145 0.40825,-2.3822759 0,-1.5916291 -0.40825,-2.382276 -0.40307,-0.7958145 -1.21439,-0.7958145 z m 0,-0.8268203 q 1.29707,0 1.9792,1.0283577 0.6873,1.0231901 0.6873,2.9765531 0,1.9481953 -0.6873,2.9765527 -0.68213,1.02319 -1.9792,1.02319 -1.29707,0 -1.98437,-1.02319 -0.68212,-1.0283574 -0.68212,-2.9765527 0,-1.953363 0.68212,-2.9765531 0.6873,-1.0283577 1.98437,-1.0283577 z" />
      <path
         id="path983"
         style="stroke-width:0.264583"
         d="m 111.56044,10.435358 h 1.70532 V 4.5494308 l -1.85518,0.3720691 V 3.9706566 l 1.84484,-0.3720692 h 1.04386 v 6.8367706 h 1.70532 v 0.878496 h -4.44416 z" />
    </g>
    <path
       id="path927"
       d="M 39.158333,100.50387 H 99.256545"
       style="fill:none;stroke:#ff0000;stroke-width:1.32292;stroke-linecap:butt;stroke-linejoin:miter;stroke-miterlimit:4;stroke-dasharray:none;stroke-opacity:1" />
    <g
       style="font-style:normal;font-weight:normal;font-size:10.5833px;line-height:1.25;font-family:sans-serif;fill:#000000;fill-opacity:1;stroke:none;stroke-width:0.264583"
       id="text931"
       transform="rotate(90,3.439583,-1.3229166)"
       aria-label="1011110101">
      <path
         id="path986"
         style="stroke-width:0.264583"
         d="m 39.083016,-61.614451 h 1.705317 v -5.885927 l -1.855178,0.372069 v -0.950843 l 1.844843,-0.372069 h 1.043861 v 6.83677 h 1.705316 v 0.878497 h -4.444159 z" />
      <path
         id="path988"
         style="stroke-width:0.264583"
         d="m 47.87315,-67.763927 q -0.80615,0 -1.214393,0.795815 -0.403075,0.790647 -0.403075,2.382276 0,1.586461 0.403075,2.382276 0.408243,0.790647 1.214393,0.790647 0.811317,0 1.214392,-0.790647 0.408242,-0.795815 0.408242,-2.382276 0,-1.591629 -0.408242,-2.382276 -0.403075,-0.795815 -1.214392,-0.795815 z m 0,-0.82682 q 1.297074,0 1.979201,1.028358 0.687294,1.02319 0.687294,2.976553 0,1.948195 -0.687294,2.976553 -0.682127,1.02319 -1.979201,1.02319 -1.297075,0 -1.984369,-1.02319 -0.682127,-1.028358 -0.682127,-2.976553 0,-1.953363 0.682127,-2.976553 0.687294,-1.028358 1.984369,-1.028358 z" />
      <path
         id="path990"
         style="stroke-width:0.264583"
         d="m 52.560187,-61.614451 h 1.705317 v -5.885927 l -1.855178,0.372069 v -0.950843 l 1.844843,-0.372069 h 1.04386 v 6.83677 h 1.705317 v 0.878497 h -4.444159 z" />
      <path
         id="path992"
         style="stroke-width:0.264583"
         d="m 59.298772,-61.614451 h 1.705317 v -5.885927 l -1.855178,0.372069 v -0.950843 l 1.844842,-0.372069 h 1.043861 v 6.83677 h 1.705317 v 0.878497 h -4.444159 z" />
      <path
         id="path994"
         style="stroke-width:0.264583"
         d="m 66.037358,-61.614451 h 1.705317 v -5.885927 l -1.855178,0.372069 v -0.950843 l 1.844843,-0.372069 h 1.04386 v 6.83677 h 1.705317 v 0.878497 h -4.444159 z" />
      <path
         id="path996"
         style="stroke-width:0.264583"
         d="m 72.775945,-61.614451 h 1.705316 v -5.885927 l -1.855178,0.372069 v -0.950843 l 1.844843,-0.372069 h 1.043861 v 6.83677 h 1.705317 v 0.878497 h -4.444159 z" />
      <path
         id="path998"
         style="stroke-width:0.264583"
         d="m 81.566075,-67.763927 q -0.80615,0 -1.214392,0.795815 -0.403075,0.790647 -0.403075,2.382276 0,1.586461 0.403075,2.382276 0.408242,0.790647 1.214392,0.790647 0.811318,0 1.214392,-0.790647 0.408243,-0.795815 0.408243,-2.382276 0,-1.591629 -0.408243,-2.382276 -0.403074,-0.795815 -1.214392,-0.795815 z m 0,-0.82682 q 1.297074,0 1.979201,1.028358 0.687295,1.02319 0.687295,2.976553 0,1.948195 -0.687295,2.976553 -0.682127,1.02319 -1.979201,1.02319 -1.297074,0 -1.984369,-1.02319 -0.682126,-1.028358 -0.682126,-2.976553 0,-1.953363 0.682126,-2.976553 0.687295,-1.028358 1.984369,-1.028358 z" />
      <path
         id="path1000"
         style="stroke-width:0.264583"
         d="m 86.253114,-61.614451 h 1.705317 v -5.885927 l -1.855178,0.372069 v -0.950843 l 1.844842,-0.372069 h 1.043861 v 6.83677 h 1.705317 v 0.878497 h -4.444159 z" />
      <path
         id="path1002"
         style="stroke-width:0.264583"
         d="m 95.043248,-67.763927 q -0.80615,0 -1.214392,0.795815 -0.403075,0.790647 -0.403075,2.382276 0,1.586461 0.403075,2.382276 0.408242,0.790647 1.214392,0.790647 0.811317,0 1.214392,-0.790647 0.408243,-0.795815 0.408243,-2.382276 0,-1.591629 -0.408243,-2.382276 -0.403075,-0.795815 -1.214392,-0.795815 z m 0,-0.82682 q 1.297074,0 1.979201,1.028358 0.687294,1.02319 0.687294,2.976553 0,1.948195 -0.687294,2.976553 -0.682127,1.02319 -1.979201,1.02319 -1.297074,0 -1.984369,-1.02319 -0.682126,-1.028358 -0.682126,-2.976553 0,-1.953363 0.682126,-2.976553 0.687295,-1.028358 1.984369,-1.028358 z" />
      <path
         id="path1004"
         style="stroke-width:0.264583"
         d="m 99.730287,-61.614451 h 1.705313 v -5.885927 l -1.855175,0.372069 v -0.950843 l 1.844845,-0.372069 h 1.04386 v 6.83677 h 1.70532 v 0.878497 h -4.444163 z" />
    </g>
    <g
       style="font-style:normal;font-weight:normal;font-size:10.5833px;line-height:1.25;font-family:sans-serif;fill:#000000;fill-opacity:1;stroke:none;stroke-width:0.264583"
       id="text939"
       transform="matrix(-0.5373162,0.84338088,0.84338088,0.5373162,2.1166665,-4.7624995)"
       aria-label="11000101100101">
      <path
         id="path1007"
         style="stroke-width:0.264583"
         d="m -45.272056,119.10177 h 1.705317 v -5.88593 l -1.855178,0.37207 v -0.95084 l 1.844843,-0.37207 h 1.043861 v 6.83677 h 1.705316 v 0.87849 h -4.444159 z" />
      <path
         id="path1009"
         style="stroke-width:0.264583"
         d="m -38.53347,119.10177 h 1.705317 v -5.88593 l -1.855178,0.37207 v -0.95084 l 1.844842,-0.37207 h 1.043861 v 6.83677 h 1.705317 v 0.87849 h -4.444159 z" />
      <path
         id="path1011"
         style="stroke-width:0.264583"
         d="m -29.743337,112.95229 q -0.80615,0 -1.214392,0.79581 -0.403075,0.79065 -0.403075,2.38228 0,1.58646 0.403075,2.38228 0.408242,0.79064 1.214392,0.79064 0.811318,0 1.214392,-0.79064 0.408243,-0.79582 0.408243,-2.38228 0,-1.59163 -0.408243,-2.38228 -0.403074,-0.79581 -1.214392,-0.79581 z m 0,-0.82682 q 1.297074,0 1.979201,1.02836 0.687295,1.02319 0.687295,2.97655 0,1.9482 -0.687295,2.97655 -0.682127,1.02319 -1.979201,1.02319 -1.297074,0 -1.984369,-1.02319 -0.682126,-1.02835 -0.682126,-2.97655 0,-1.95336 0.682126,-2.97655 0.687295,-1.02836 1.984369,-1.02836 z" />
      <path
         id="path1013"
         style="stroke-width:0.264583"
         d="m -23.004752,112.95229 q -0.80615,0 -1.214393,0.79581 -0.403075,0.79065 -0.403075,2.38228 0,1.58646 0.403075,2.38228 0.408243,0.79064 1.214393,0.79064 0.811317,0 1.214392,-0.79064 0.408242,-0.79582 0.408242,-2.38228 0,-1.59163 -0.408242,-2.38228 -0.403075,-0.79581 -1.214392,-0.79581 z m 0,-0.82682 q 1.297074,0 1.979201,1.02836 0.687294,1.02319 0.687294,2.97655 0,1.9482 -0.687294,2.97655 -0.682127,1.02319 -1.979201,1.02319 -1.297075,0 -1.984369,-1.02319 -0.682127,-1.02835 -0.682127,-2.97655 0,-1.95336 0.682127,-2.97655 0.687294,-1.02836 1.984369,-1.02836 z" />
      <path
         id="path1015"
         style="stroke-width:0.264583"
         d="m -16.266166,112.95229 q -0.80615,0 -1.214392,0.79581 -0.403075,0.79065 -0.403075,2.38228 0,1.58646 0.403075,2.38228 0.408242,0.79064 1.214392,0.79064 0.811317,0 1.214392,-0.79064 0.408243,-0.79582 0.408243,-2.38228 0,-1.59163 -0.408243,-2.38228 -0.403075,-0.79581 -1.214392,-0.79581 z m 0,-0.82682 q 1.297074,0 1.979201,1.02836 0.687294,1.02319 0.687294,2.97655 0,1.9482 -0.687294,2.97655 -0.682127,1.02319 -1.979201,1.02319 -1.297074,0 -1.984369,-1.02319 -0.682126,-1.02835 -0.682126,-2.97655 0,-1.95336 0.682126,-2.97655 0.687295,-1.02836 1.984369,-1.02836 z" />
      <path
         id="path1017"
         style="stroke-width:0.264583"
         d="m -11.579127,119.10177 h 1.7053165 v -5.88593 l -1.8551785,0.37207 v -0.95084 l 1.8448432,-0.37207 h 1.0438606 v 6.83677 h 1.7053169 v 0.87849 h -4.4441587 z" />
      <path
         id="path1019"
         style="stroke-width:0.264583"
         d="m -2.7889969,112.95229 q -0.8061498,0 -1.2143923,0.79581 -0.4030749,0.79065 -0.4030749,2.38228 0,1.58646 0.4030749,2.38228 0.4082425,0.79064 1.2143923,0.79064 0.8113174,0 1.2143923,-0.79064 0.4082425,-0.79582 0.4082425,-2.38228 0,-1.59163 -0.4082425,-2.38228 -0.4030749,-0.79581 -1.2143923,-0.79581 z m 0,-0.82682 q 1.2970743,0 1.97920104,1.02836 0.68729436,1.02319 0.68729436,2.97655 0,1.9482 -0.68729436,2.97655 -0.68212674,1.02319 -1.97920104,1.02319 -1.2970743,0 -1.9843687,-1.02319 -0.6821267,-1.02835 -0.6821267,-2.97655 0,-1.95336 0.6821267,-2.97655 0.6872944,-1.02836 1.9843687,-1.02836 z" />
      <path
         id="path1021"
         style="stroke-width:0.264583"
         d="m 1.8980417,119.10177 h 1.7053168 v -5.88593 l -1.855178,0.37207 v -0.95084 L 3.5930233,112.265 h 1.0438606 v 6.83677 h 1.7053168 v 0.87849 h -4.444159 z" />
      <path
         id="path1023"
         style="stroke-width:0.264583"
         d="m 8.6366281,119.10177 h 1.7053169 v -5.88593 l -1.8551781,0.37207 v -0.95084 L 10.33161,112.265 h 1.04386 v 6.83677 h 1.705317 v 0.87849 H 8.6366281 Z" />
      <path
         id="path1025"
         style="stroke-width:0.264583"
         d="m 17.426762,112.95229 q -0.806149,0 -1.214392,0.79581 -0.403075,0.79065 -0.403075,2.38228 0,1.58646 0.403075,2.38228 0.408243,0.79064 1.214392,0.79064 0.811318,0 1.214393,-0.79064 0.408242,-0.79582 0.408242,-2.38228 0,-1.59163 -0.408242,-2.38228 -0.403075,-0.79581 -1.214393,-0.79581 z m 0,-0.82682 q 1.297075,0 1.979201,1.02836 0.687295,1.02319 0.687295,2.97655 0,1.9482 -0.687295,2.97655 -0.682126,1.02319 -1.979201,1.02319 -1.297074,0 -1.984368,-1.02319 -0.682127,-1.02835 -0.682127,-2.97655 0,-1.95336 0.682127,-2.97655 0.687294,-1.02836 1.984368,-1.02836 z" />
      <path
         id="path1027"
         style="stroke-width:0.264583"
         d="m 24.165349,112.95229 q -0.80615,0 -1.214393,0.79581 -0.403074,0.79065 -0.403074,2.38228 0,1.58646 0.403074,2.38228 0.408243,0.79064 1.214393,0.79064 0.811317,0 1.214392,-0.79064 0.408243,-0.79582 0.408243,-2.38228 0,-1.59163 -0.408243,-2.38228 -0.403075,-0.79581 -1.214392,-0.79581 z m 0,-0.82682 q 1.297074,0 1.979201,1.02836 0.687294,1.02319 0.687294,2.97655 0,1.9482 -0.687294,2.97655 -0.682127,1.02319 -1.979201,1.02319 -1.297075,0 -1.984369,-1.02319 -0.682127,-1.02835 -0.682127,-2.97655 0,-1.95336 0.682127,-2.97655 0.687294,-1.02836 1.984369,-1.02836 z" />
      <path
         id="path1029"
         style="stroke-width:0.264583"
         d="m 28.852387,119.10177 h 1.705317 v -5.88593 l -1.855178,0.37207 v -0.95084 l 1.844843,-0.37207 h 1.043861 v 6.83677 h 1.705316 v 0.87849 h -4.444159 z" />
      <path
         id="path1031"
         style="stroke-width:0.264583"
         d="m 37.642514,112.95229 q -0.80615,0 -1.214392,0.79581 -0.403075,0.79065 -0.403075,2.38228 0,1.58646 0.403075,2.38228 0.408242,0.79064 1.214392,0.79064 0.811317,0 1.214392,-0.79064 0.408243,-0.79582 0.408243,-2.38228 0,-1.59163 -0.408243,-2.38228 -0.403075,-0.79581 -1.214392,-0.79581 z m 0,-0.82682 q 1.297074,0 1.979201,1.02836 0.687294,1.02319 0.687294,2.97655 0,1.9482 -0.687294,2.97655 -0.682127,1.02319 -1.979201,1.02319 -1.297074,0 -1.984369,-1.02319 -0.682126,-1.02835 -0.682126,-2.97655 0,-1.95336 0.682126,-2.97655 0.687295,-1.02836 1.984369,-1.02836 z" />
      <path
         id="path1033"
         style="stroke-width:0.264583"
         d="m 42.329553,119.10177 h 1.705316 v -5.88593 l -1.855178,0.37207 v -0.95084 l 1.844843,-0.37207 h 1.043861 v 6.83677 h 1.705317 v 0.87849 h -4.444159 z" />
    </g>
    <g
       style="font-style:normal;font-weight:normal;font-size:10.5833px;line-height:1.25;font-family:sans-serif;fill:#ff0000;fill-opacity:1;stroke:#ff0000;stroke-width:0.264583;stroke-opacity:1"
       id="text1038"
       aria-label="ERROR IN...">
      <path
         id="path1040"
         style="fill:#ff0000;fill-opacity:1;stroke:#ff0000;stroke-width:0.264583;stroke-opacity:1"
         d="m 39.705651,106.43354 h 4.87824 v 0.87849 h -3.83438 v 2.28409 h 3.674183 v 0.8785 h -3.674183 v 2.79569 h 3.927397 v 0.87849 h -4.971257 z" />
      <path
         id="path1042"
         style="fill:#ff0000;fill-opacity:1;stroke:#ff0000;stroke-width:0.264583;stroke-opacity:1"
         d="m 50.061575,110.53146 q 0.335896,0.11369 0.651121,0.48576 0.320393,0.37207 0.640785,1.02319 l 1.059364,2.10839 H 51.29147 l -0.987017,-1.9792 q -0.382404,-0.77514 -0.744138,-1.02836 -0.356566,-0.25321 -0.976681,-0.25321 h -1.136878 v 3.26077 h -1.043861 v -7.71526 h 2.356438 q 1.322912,0 1.974033,0.55293 0.651121,0.55294 0.651121,1.66915 0,0.72863 -0.341063,1.20922 -0.335896,0.48059 -0.981849,0.66662 z m -2.614819,-3.2401 v 2.73885 h 1.312577 q 0.754473,0 1.136878,-0.34624 0.387572,-0.35139 0.387572,-1.02835 0,-0.67696 -0.387572,-1.01803 -0.382405,-0.34623 -1.136878,-0.34623 z" />
      <path
         id="path1044"
         style="fill:#ff0000;fill-opacity:1;stroke:#ff0000;stroke-width:0.264583;stroke-opacity:1"
         d="m 57.420275,110.53146 q 0.335896,0.11369 0.651121,0.48576 0.320393,0.37207 0.640786,1.02319 l 1.059363,2.10839 H 58.65017 l -0.987017,-1.9792 q -0.382404,-0.77514 -0.744138,-1.02836 -0.356566,-0.25321 -0.976681,-0.25321 h -1.136878 v 3.26077 h -1.043861 v -7.71526 h 2.356438 q 1.322913,0 1.974034,0.55293 0.65112,0.55294 0.65112,1.66915 0,0.72863 -0.341063,1.20922 -0.335896,0.48059 -0.981849,0.66662 z m -2.614819,-3.2401 v 2.73885 h 1.312577 q 0.754474,0 1.136878,-0.34624 0.387572,-0.35139 0.387572,-1.02835 0,-0.67696 -0.387572,-1.01803 -0.382404,-0.34623 -1.136878,-0.34623 z" />
      <path
         id="path1046"
         style="fill:#ff0000;fill-opacity:1;stroke:#ff0000;stroke-width:0.264583;stroke-opacity:1"
         d="m 64.251879,107.1415 q -1.136878,0 -1.80867,0.84749 -0.666623,0.84749 -0.666623,2.30993 0,1.45727 0.666623,2.30476 0.671792,0.84749 1.80867,0.84749 1.136878,0 1.798334,-0.84749 0.666624,-0.84749 0.666624,-2.30476 0,-1.46244 -0.666624,-2.30993 -0.661456,-0.84749 -1.798334,-0.84749 z m 0,-0.84749 q 1.622635,0 2.594148,1.09037 0.971514,1.0852 0.971514,2.91454 0,1.82417 -0.971514,2.91454 -0.971513,1.0852 -2.594148,1.0852 -1.627803,0 -2.604484,-1.0852 -0.971514,-1.0852 -0.971514,-2.91454 0,-1.82934 0.971514,-2.91454 0.976681,-1.09037 2.604484,-1.09037 z" />
      <path
         id="path1048"
         style="fill:#ff0000;fill-opacity:1;stroke:#ff0000;stroke-width:0.264583;stroke-opacity:1"
         d="m 73.10919,110.53146 q 0.335896,0.11369 0.651121,0.48576 0.320393,0.37207 0.640786,1.02319 l 1.059363,2.10839 h -1.121375 l -0.987016,-1.9792 q -0.382405,-0.77514 -0.744139,-1.02836 -0.356566,-0.25321 -0.976681,-0.25321 h -1.136878 v 3.26077 h -1.04386 v -7.71526 h 2.356437 q 1.322913,0 1.974034,0.55293 0.651121,0.55294 0.651121,1.66915 0,0.72863 -0.341064,1.20922 -0.335895,0.48059 -0.981849,0.66662 z m -2.614819,-3.2401 v 2.73885 h 1.312577 q 0.754474,0 1.136878,-0.34624 0.387572,-0.35139 0.387572,-1.02835 0,-0.67696 -0.387572,-1.01803 -0.382404,-0.34623 -1.136878,-0.34623 z" />
      <path
         id="path1050"
         style="fill:#ff0000;fill-opacity:1;stroke:#ff0000;stroke-width:0.264583;stroke-opacity:1"
         d="m 80.178505,106.43354 h 1.043861 v 7.71526 h -1.043861 z" />
      <path
         id="path1052"
         style="fill:#ff0000;fill-opacity:1;stroke:#ff0000;stroke-width:0.264583;stroke-opacity:1"
         d="m 83.299752,106.43354 h 1.405594 l 3.420969,6.45436 v -6.45436 h 1.012855 v 7.71526 h -1.405594 l -3.420969,-6.45436 v 6.45436 h -1.012855 z" />
      <path
         id="path1054"
         style="fill:#ff0000;fill-opacity:1;stroke:#ff0000;stroke-width:0.264583;stroke-opacity:1"
         d="m 91.309574,112.83623 h 1.09037 v 1.31257 h -1.09037 z" />
      <path
         id="path1056"
         style="fill:#ff0000;fill-opacity:1;stroke:#ff0000;stroke-width:0.264583;stroke-opacity:1"
         d="m 94.678864,112.83623 h 1.090369 v 1.31257 h -1.090369 z" />
      <path
         id="path1058"
         style="fill:#ff0000;fill-opacity:1;stroke:#ff0000;stroke-width:0.264583;stroke-opacity:1"
         d="m 98.048157,112.83623 h 1.090369 v 1.31257 h -1.090369 z" />
    </g>
  </g>
</svg>
